<mxfile host="65bd71144e">
    <diagram id="YHAMljgCTWBss-dD3llX" name="Page-1">
        <mxGraphModel dx="1454" dy="1555" grid="1" gridSize="10" guides="1" tooltips="1" connect="1" arrows="1" fold="1" page="1" pageScale="1" pageWidth="850" pageHeight="1100" math="0" shadow="0">
            <root>
                <mxCell id="0"/>
                <mxCell id="1" parent="0"/>
                <mxCell id="8" style="edgeStyle=none;html=1;exitX=1;exitY=0.5;exitDx=0;exitDy=0;entryX=0;entryY=0.5;entryDx=0;entryDy=0;" edge="1" parent="1" source="3" target="7">
                    <mxGeometry relative="1" as="geometry">
                        <Array as="points">
                            <mxPoint x="330" y="-35"/>
                            <mxPoint x="330" y="-455"/>
                        </Array>
                    </mxGeometry>
                </mxCell>
                <mxCell id="14" style="edgeStyle=none;html=1;entryX=0;entryY=0.5;entryDx=0;entryDy=0;fontSize=14;" edge="1" parent="1" source="3">
                    <mxGeometry relative="1" as="geometry">
                        <mxPoint x="490" y="295" as="targetPoint"/>
                        <Array as="points">
                            <mxPoint x="330" y="-35"/>
                            <mxPoint x="330" y="295"/>
                        </Array>
                    </mxGeometry>
                </mxCell>
                <mxCell id="15" value="isUserLoggedIn?" style="edgeLabel;html=1;align=center;verticalAlign=middle;resizable=0;points=[];fontSize=14;" vertex="1" connectable="0" parent="14">
                    <mxGeometry x="-0.788" relative="1" as="geometry">
                        <mxPoint x="42" as="offset"/>
                    </mxGeometry>
                </mxCell>
                <mxCell id="36" value="" style="group" vertex="1" connectable="0" parent="1">
                    <mxGeometry x="490" y="-780" width="380" height="650" as="geometry"/>
                </mxCell>
                <mxCell id="7" value="" style="rounded=1;whiteSpace=wrap;html=1;arcSize=8;" vertex="1" parent="36">
                    <mxGeometry width="360" height="650" as="geometry"/>
                </mxCell>
                <mxCell id="23" value="" style="group" vertex="1" connectable="0" parent="36">
                    <mxGeometry x="280" y="10" width="100" height="40" as="geometry"/>
                </mxCell>
                <mxCell id="12" value="" style="ellipse;whiteSpace=wrap;html=1;fontSize=14;" vertex="1" parent="23">
                    <mxGeometry x="40" width="20" height="20" as="geometry"/>
                </mxCell>
                <mxCell id="18" value="acountName" style="text;strokeColor=none;align=center;fillColor=none;html=1;verticalAlign=middle;whiteSpace=wrap;rounded=0;fontSize=8;" vertex="1" parent="23">
                    <mxGeometry y="10" width="100" height="30" as="geometry"/>
                </mxCell>
                <mxCell id="24" value="" style="rounded=1;whiteSpace=wrap;html=1;fontSize=8;" vertex="1" parent="36">
                    <mxGeometry x="30" y="60" width="300" height="140" as="geometry"/>
                </mxCell>
                <mxCell id="25" value="Post" style="text;strokeColor=none;align=center;fillColor=none;html=1;verticalAlign=middle;whiteSpace=wrap;rounded=0;fontSize=16;" vertex="1" parent="36">
                    <mxGeometry x="150" y="60" width="60" height="30" as="geometry"/>
                </mxCell>
                <mxCell id="26" value="" style="rounded=1;whiteSpace=wrap;html=1;fontSize=8;" vertex="1" parent="36">
                    <mxGeometry x="30" y="230" width="300" height="140" as="geometry"/>
                </mxCell>
                <mxCell id="27" value="Post" style="text;strokeColor=none;align=center;fillColor=none;html=1;verticalAlign=middle;whiteSpace=wrap;rounded=0;fontSize=16;" vertex="1" parent="36">
                    <mxGeometry x="150" y="230" width="60" height="30" as="geometry"/>
                </mxCell>
                <mxCell id="28" value="" style="rounded=1;whiteSpace=wrap;html=1;fontSize=8;" vertex="1" parent="36">
                    <mxGeometry x="30" y="410" width="300" height="140" as="geometry"/>
                </mxCell>
                <mxCell id="29" value="Post" style="text;strokeColor=none;align=center;fillColor=none;html=1;verticalAlign=middle;whiteSpace=wrap;rounded=0;fontSize=16;" vertex="1" parent="36">
                    <mxGeometry x="150" y="410" width="60" height="30" as="geometry"/>
                </mxCell>
                <mxCell id="32" value="" style="edgeStyle=none;orthogonalLoop=1;jettySize=auto;html=1;fontSize=16;endArrow=none;endFill=0;" edge="1" parent="36">
                    <mxGeometry width="80" relative="1" as="geometry">
                        <mxPoint x="20" y="20" as="sourcePoint"/>
                        <mxPoint x="50" y="20" as="targetPoint"/>
                        <Array as="points"/>
                    </mxGeometry>
                </mxCell>
                <mxCell id="34" value="" style="edgeStyle=none;orthogonalLoop=1;jettySize=auto;html=1;fontSize=16;endArrow=none;endFill=0;" edge="1" parent="36">
                    <mxGeometry width="80" relative="1" as="geometry">
                        <mxPoint x="20" y="29.779999999999973" as="sourcePoint"/>
                        <mxPoint x="50" y="29.779999999999973" as="targetPoint"/>
                        <Array as="points"/>
                    </mxGeometry>
                </mxCell>
                <mxCell id="35" value="" style="edgeStyle=none;orthogonalLoop=1;jettySize=auto;html=1;fontSize=16;endArrow=none;endFill=0;" edge="1" parent="36">
                    <mxGeometry width="80" relative="1" as="geometry">
                        <mxPoint x="20" y="40" as="sourcePoint"/>
                        <mxPoint x="50" y="40" as="targetPoint"/>
                        <Array as="points"/>
                    </mxGeometry>
                </mxCell>
                <mxCell id="37" value="" style="group" vertex="1" connectable="0" parent="1">
                    <mxGeometry x="490" y="-60" width="380" height="650" as="geometry"/>
                </mxCell>
                <mxCell id="38" value="" style="rounded=1;whiteSpace=wrap;html=1;arcSize=8;" vertex="1" parent="37">
                    <mxGeometry width="360" height="650" as="geometry"/>
                </mxCell>
                <mxCell id="42" value="" style="rounded=1;whiteSpace=wrap;html=1;fontSize=8;" vertex="1" parent="37">
                    <mxGeometry x="30" y="60" width="300" height="140" as="geometry"/>
                </mxCell>
                <mxCell id="43" value="Post" style="text;strokeColor=none;align=center;fillColor=none;html=1;verticalAlign=middle;whiteSpace=wrap;rounded=0;fontSize=16;" vertex="1" parent="37">
                    <mxGeometry x="150" y="60" width="60" height="30" as="geometry"/>
                </mxCell>
                <mxCell id="44" value="" style="rounded=1;whiteSpace=wrap;html=1;fontSize=8;" vertex="1" parent="37">
                    <mxGeometry x="30" y="230" width="300" height="140" as="geometry"/>
                </mxCell>
                <mxCell id="45" value="Post" style="text;strokeColor=none;align=center;fillColor=none;html=1;verticalAlign=middle;whiteSpace=wrap;rounded=0;fontSize=16;" vertex="1" parent="37">
                    <mxGeometry x="150" y="230" width="60" height="30" as="geometry"/>
                </mxCell>
                <mxCell id="46" value="" style="rounded=1;whiteSpace=wrap;html=1;fontSize=8;" vertex="1" parent="37">
                    <mxGeometry x="30" y="410" width="300" height="140" as="geometry"/>
                </mxCell>
                <mxCell id="47" value="Post" style="text;strokeColor=none;align=center;fillColor=none;html=1;verticalAlign=middle;whiteSpace=wrap;rounded=0;fontSize=16;" vertex="1" parent="37">
                    <mxGeometry x="150" y="410" width="60" height="30" as="geometry"/>
                </mxCell>
                <mxCell id="48" value="" style="edgeStyle=none;orthogonalLoop=1;jettySize=auto;html=1;fontSize=16;endArrow=none;endFill=0;" edge="1" parent="37">
                    <mxGeometry width="80" relative="1" as="geometry">
                        <mxPoint x="20" y="20" as="sourcePoint"/>
                        <mxPoint x="50" y="20" as="targetPoint"/>
                        <Array as="points"/>
                    </mxGeometry>
                </mxCell>
                <mxCell id="49" value="" style="edgeStyle=none;orthogonalLoop=1;jettySize=auto;html=1;fontSize=16;endArrow=none;endFill=0;" edge="1" parent="37">
                    <mxGeometry width="80" relative="1" as="geometry">
                        <mxPoint x="20" y="29.779999999999973" as="sourcePoint"/>
                        <mxPoint x="50" y="29.779999999999973" as="targetPoint"/>
                        <Array as="points"/>
                    </mxGeometry>
                </mxCell>
                <mxCell id="50" value="" style="edgeStyle=none;orthogonalLoop=1;jettySize=auto;html=1;fontSize=16;endArrow=none;endFill=0;" edge="1" parent="37">
                    <mxGeometry width="80" relative="1" as="geometry">
                        <mxPoint x="20" y="40" as="sourcePoint"/>
                        <mxPoint x="50" y="40" as="targetPoint"/>
                        <Array as="points"/>
                    </mxGeometry>
                </mxCell>
                <mxCell id="51" value="" style="group" vertex="1" connectable="0" parent="1">
                    <mxGeometry x="-280" y="-360" width="360" height="650" as="geometry"/>
                </mxCell>
                <mxCell id="3" value="" style="rounded=1;whiteSpace=wrap;html=1;arcSize=8;" vertex="1" parent="51">
                    <mxGeometry width="360" height="650" as="geometry"/>
                </mxCell>
                <mxCell id="5" value="Login to Apple/Google" style="rounded=1;whiteSpace=wrap;html=1;" vertex="1" parent="51">
                    <mxGeometry x="80" y="230" width="220" height="40" as="geometry"/>
                </mxCell>
                <mxCell id="6" value="Welcome!&amp;nbsp; Login to your Apple/Google account to use biometrics and post as a human.&amp;nbsp;" style="text;strokeColor=none;align=center;fillColor=none;html=1;verticalAlign=middle;whiteSpace=wrap;rounded=0;fontSize=14;" vertex="1" parent="51">
                    <mxGeometry x="40" y="30" width="300" height="100" as="geometry"/>
                </mxCell>
                <mxCell id="11" value="" style="group" vertex="1" connectable="0" parent="51">
                    <mxGeometry x="50" y="470" width="280" height="40" as="geometry"/>
                </mxCell>
                <mxCell id="10" value="" style="rounded=1;whiteSpace=wrap;html=1;" vertex="1" parent="11">
                    <mxGeometry width="280" height="40" as="geometry"/>
                </mxCell>
                <mxCell id="9" value="Skip login and browse anonymously" style="text;strokeColor=none;align=center;fillColor=none;html=1;verticalAlign=middle;whiteSpace=wrap;rounded=0;" vertex="1" parent="11">
                    <mxGeometry x="25.454545454545453" y="5" width="229.0909090909091" height="30" as="geometry"/>
                </mxCell>
            </root>
        </mxGraphModel>
    </diagram>
</mxfile>